<?xml version="1.0" encoding="UTF-8"?>
<!DOCTYPE svg PUBLIC "-//W3C//DTD SVG 1.1//EN" "http://www.w3.org/Graphics/SVG/1.1/DTD/svg11.dtd">
<!-- Creator: CorelDRAW -->
<svg xmlns="http://www.w3.org/2000/svg" xml:space="preserve" width="10.8372mm" height="10.8372mm" version="1.1" style="shape-rendering:geometricPrecision; text-rendering:geometricPrecision; image-rendering:optimizeQuality; fill-rule:evenodd; clip-rule:evenodd"
viewBox="0 0 1083.72 1083.72"
 xmlns:xlink="http://www.w3.org/1999/xlink"
 xmlns:xodm="http://www.corel.com/coreldraw/odm/2003">
 <defs>
  <style type="text/css">
   <![CDATA[
    .fil0 {fill:none}
    .fil1 {fill:#FEFEFE}
    .fil3 {fill:black}
    .fil4 {fill:white}
    .fil2 {fill:#2B2A29;fill-rule:nonzero}
   ]]>
  </style>
 </defs>
 <g id="Слой_x0020_1">
  <metadata id="CorelCorpID_0Corel-Layer"/>
  <rect class="fil0" x="-1625.67" y="-1625.68" width="4334.92" height="4334.92"/>
  <polygon class="fil1" points="-1354.65,-1354.82 2438.37,-1354.82 2438.37,2438.2 -1354.65,2438.2 "/>
  <path class="fil2" d="M-1329.61 -1354.82l3767.98 0 0 3793.02 -3793.02 0 0 -3793.02 25.04 0zm3717.89 50.09l-3692.84 0 0 3692.84 3692.84 0 0 -3692.84z"/>
  <g id="_584906965104">
   <path class="fil3" d="M1197.36 -750.36c251.11,-49.93 440.27,102.25 469.62,367.77 61.96,560.47 -467.84,605.42 -651.46,435.13 -178.03,-165.1 -179.8,-477.24 -73.68,-637.95 64.45,-97.61 115.46,-137.11 255.52,-164.95zm-51.13 -385.6c-537.7,61.53 -761.53,438.2 -715.9,952.95 21.81,245.96 138.51,445.28 292.43,551.7 264.85,183.13 711.21,207.07 1012.73,56.55 99.54,-49.68 92.35,-56.82 149.97,-105.58 274.85,-232.59 320.07,-755.12 136.84,-1080.22 -172.98,-306.91 -506.49,-417.69 -876.07,-375.4z"/>
   <path class="fil3" d="M34.16 971c7.5,8.18 9.09,0.6 9.84,37.97 0.24,12.2 -0.54,26.65 -0.59,39.23l-0.14 1177.88 440.93 -2.82 -0.65 -1634.32 -1204.21 -0.14c1.56,126.76 -11.65,259.22 -11.12,381.9 0.82,192.6 -13.79,549.75 -68.53,721.13 -37.07,116.06 -108.72,145.88 -248.41,145.59l-0.04 391.28c213.56,-2.39 450.96,14.35 585.25,-169.49 39.38,-53.92 58.86,-95.79 80.36,-167.23 53.7,-178.43 69.96,-712.31 74.88,-920.82l342.43 -0.16z"/>
   <path class="fil3" d="M577.91 2223.17l440.91 2.91 -0.14 -597.08c0.25,-43.41 -1.07,-10.05 9.16,-23.13l185.7 0.32c22.21,57.23 303.25,506.1 359.25,622.27l516.36 0.09c-14.88,-43.58 -42,-73.7 -63.48,-111.82l-432.74 -713.73c-36.9,-53.67 -0.5,-73.33 81.67,-202.67l376.47 -611.44 -508.01 0.15c-10.68,35.69 -225.06,405.64 -261.78,473.55 -25.93,47.95 -65.1,106.86 -83.62,155.39l-176.12 -2.34 0.03 -626.8 -442.17 1.44 -1.49 1632.89z"/>
   <path class="fil3" d="M-1048.72 -756.23l540.22 1.11 -0.11 1253.5c127.08,-6.32 303.99,-0.07 441.26,-1.87l1.02 -1253.53 548.49 -0.01 2.1 -387.12 -1532.98 -0.07 0 387.99z"/>
   <path class="fil4" d="M1197.36 -750.36c-140.06,27.84 -191.07,67.34 -255.52,164.95 -106.12,160.71 -104.35,472.85 73.68,637.95 183.62,170.29 713.42,125.34 651.46,-435.13 -29.35,-265.52 -218.51,-417.7 -469.62,-367.77z"/>
  </g>
 </g>
</svg>
