<?xml version="1.0" encoding="UTF-8"?>
<!DOCTYPE svg PUBLIC "-//W3C//DTD SVG 1.1//EN" "http://www.w3.org/Graphics/SVG/1.1/DTD/svg11.dtd">
<!-- Creator: CorelDRAW -->
<svg xmlns="http://www.w3.org/2000/svg" xml:space="preserve" width="10.8372mm" height="10.8372mm" version="1.1" style="shape-rendering:geometricPrecision; text-rendering:geometricPrecision; image-rendering:optimizeQuality; fill-rule:evenodd; clip-rule:evenodd"
viewBox="0 0 1083.72 1083.72"
 xmlns:xlink="http://www.w3.org/1999/xlink"
 xmlns:xodm="http://www.corel.com/coreldraw/odm/2003">
 <defs>
  <style type="text/css">
   <![CDATA[
    .fil0 {fill:none}
    .fil1 {fill:#FEFEFE}
    .fil3 {fill:black}
    .fil4 {fill:white}
    .fil2 {fill:#2B2A29;fill-rule:nonzero}
   ]]>
  </style>
 </defs>
 <g id="Слой_x0020_1">
  <metadata id="CorelCorpID_0Corel-Layer"/>
  <g id="_584929084464">
   <rect class="fil0" x="406.39" y="406.39" width="270.93" height="270.93"/>
   <g>
    <polygon class="fil1" points="423.33,423.33 660.39,423.33 660.39,660.39 423.33,660.39 "/>
    <path class="fil2" d="M424.89 423.33l235.5 0 0 237.06 -237.06 0 0 -237.06 1.56 0zm232.37 3.13l-230.8 0 0 230.8 230.8 0 0 -230.8z"/>
    <g>
     <path class="fil3" d="M582.83 461.11c15.69,-3.12 27.52,6.39 29.35,22.98 3.87,35.03 -29.24,37.84 -40.72,27.2 -11.12,-10.32 -11.23,-29.83 -4.6,-39.87 4.03,-6.1 7.22,-8.57 15.97,-10.31zm-3.2 -24.1c-33.6,3.84 -47.59,27.38 -44.74,59.56 1.36,15.37 8.66,27.83 18.28,34.48 16.55,11.44 44.45,12.94 63.29,3.53 6.22,-3.1 5.77,-3.55 9.38,-6.6 17.17,-14.53 20,-47.19 8.55,-67.51 -10.81,-19.18 -31.66,-26.11 -54.76,-23.46z"/>
     <path class="fil3" d="M510.13 568.69c0.47,0.51 0.57,0.04 0.61,2.37 0.02,0.77 -0.03,1.67 -0.03,2.46l-0.01 73.61 27.56 -0.17 -0.04 -102.15 -75.27 -0.01c0.1,7.93 -0.73,16.21 -0.69,23.87 0.05,12.04 -0.86,34.36 -4.29,45.07 -2.31,7.26 -6.79,9.12 -15.52,9.1l0 24.46c13.34,-0.15 28.18,0.9 36.57,-10.59 2.47,-3.37 3.68,-5.99 5.03,-10.46 3.35,-11.15 4.37,-44.52 4.68,-57.55l21.4 -0.01z"/>
     <path class="fil3" d="M544.11 646.95l27.56 0.18 -0.01 -37.31c0.02,-2.72 -0.07,-0.63 0.57,-1.45l11.61 0.02c1.39,3.58 18.95,31.63 22.45,38.89l32.28 0.01c-0.93,-2.72 -2.63,-4.61 -3.97,-6.99l-27.05 -44.61c-2.3,-3.35 -0.03,-4.58 5.11,-12.66l23.53 -38.22 -31.76 0.01c-0.66,2.23 -14.06,25.35 -16.36,29.6 -1.62,2.99 -4.07,6.67 -5.22,9.71l-11.01 -0.15 0 -39.17 -27.63 0.09 -0.1 102.05z"/>
     <path class="fil3" d="M442.45 460.74l33.76 0.07 0 78.34c7.94,-0.39 18.99,0 27.57,-0.11l0.07 -78.35 34.28 0 0.13 -24.2 -95.81 0 0 24.25z"/>
     <path class="fil4" d="M582.83 461.11c-8.75,1.74 -11.94,4.21 -15.97,10.31 -6.63,10.04 -6.52,29.55 4.6,39.87 11.48,10.64 44.59,7.83 40.72,-27.2 -1.83,-16.59 -13.66,-26.1 -29.35,-22.98z"/>
    </g>
   </g>
  </g>
 </g>
</svg>
