<?xml version="1.0" encoding="UTF-8"?>
<!DOCTYPE svg PUBLIC "-//W3C//DTD SVG 1.1//EN" "http://www.w3.org/Graphics/SVG/1.1/DTD/svg11.dtd">
<!-- Creator: CorelDRAW -->
<svg xmlns="http://www.w3.org/2000/svg" xml:space="preserve" width="10.8372mm" height="10.8372mm" version="1.1" style="shape-rendering:geometricPrecision; text-rendering:geometricPrecision; image-rendering:optimizeQuality; fill-rule:evenodd; clip-rule:evenodd"
viewBox="0 0 1083.72 1083.72"
 xmlns:xlink="http://www.w3.org/1999/xlink"
 xmlns:xodm="http://www.corel.com/coreldraw/odm/2003">
 <defs>
  <style type="text/css">
   <![CDATA[
    .fil0 {fill:none}
    .fil1 {fill:#FEFEFE}
    .fil3 {fill:black}
    .fil4 {fill:white}
    .fil2 {fill:#2B2A29;fill-rule:nonzero}
   ]]>
  </style>
 </defs>
 <g id="Слой_x0020_1">
  <metadata id="CorelCorpID_0Corel-Layer"/>
  <g id="_584928373952">
   <rect class="fil0" x="245.52" y="245.52" width="592.67" height="592.67"/>
   <g>
    <polygon class="fil1" points="282.57,282.57 801.15,282.57 801.15,801.15 282.57,801.15 "/>
    <path class="fil2" d="M285.99 282.57l515.16 0 0 518.58 -518.58 0 0 -518.58 3.42 0zm508.31 6.85l-504.88 0 0 504.88 504.88 0 0 -504.88z"/>
    <g>
     <path class="fil3" d="M631.48 365.21c34.33,-6.83 60.19,13.98 64.21,50.28 8.47,76.63 -63.97,82.78 -89.07,59.49 -24.34,-22.57 -24.58,-65.24 -10.08,-87.22 8.82,-13.34 15.79,-18.74 34.94,-22.55zm-6.99 -52.72c-73.52,8.42 -104.12,59.91 -97.88,130.29 2.98,33.63 18.94,60.88 39.98,75.43 36.21,25.03 97.24,28.31 138.46,7.73 13.61,-6.79 12.63,-7.77 20.51,-14.44 37.57,-31.8 43.76,-103.24 18.71,-147.68 -23.65,-41.96 -69.25,-57.11 -119.78,-51.33z"/>
     <path class="fil3" d="M472.45 600.55c1.02,1.12 1.24,0.09 1.34,5.2 0.04,1.66 -0.07,3.64 -0.08,5.36l-0.02 161.04 60.29 -0.39 -0.09 -223.44 -164.64 -0.02c0.21,17.33 -1.59,35.44 -1.52,52.21 0.11,26.34 -1.89,75.17 -9.37,98.6 -5.07,15.86 -14.86,19.94 -33.96,19.9l-0.01 53.5c29.2,-0.33 61.66,1.96 80.02,-23.18 5.38,-7.37 8.04,-13.09 10.98,-22.86 7.35,-24.39 9.57,-97.39 10.24,-125.89l46.82 -0.03z"/>
     <path class="fil3" d="M546.79 771.75l60.28 0.4 -0.02 -81.63c0.03,-5.94 -0.15,-1.38 1.25,-3.17l25.39 0.05c3.04,7.82 41.46,69.19 49.12,85.07l70.6 0.02c-2.04,-5.96 -5.75,-10.08 -8.68,-15.29l-59.17 -97.58c-5.04,-7.34 -0.07,-10.03 11.17,-27.71l51.47 -83.6 -69.46 0.02c-1.46,4.88 -30.77,55.46 -35.79,64.75 -3.54,6.55 -8.9,14.61 -11.43,21.24l-24.08 -0.32 0.01 -85.69 -60.46 0.19 -0.2 223.25z"/>
     <path class="fil3" d="M324.4 364.41l73.85 0.15 -0.01 171.38c17.38,-0.87 41.56,-0.01 60.33,-0.26l0.14 -171.38 74.99 0 0.29 -52.93 -209.59 -0.01 0 53.05z"/>
     <path class="fil4" d="M631.48 365.21c-19.15,3.81 -26.12,9.21 -34.94,22.55 -14.5,21.98 -14.26,64.65 10.08,87.22 25.1,23.29 97.54,17.14 89.07,-59.49 -4.02,-36.3 -29.88,-57.11 -64.21,-50.28z"/>
    </g>
   </g>
  </g>
 </g>
</svg>
