<?xml version="1.0" encoding="UTF-8"?>
<!DOCTYPE svg PUBLIC "-//W3C//DTD SVG 1.1//EN" "http://www.w3.org/Graphics/SVG/1.1/DTD/svg11.dtd">
<!-- Creator: CorelDRAW -->
<svg xmlns="http://www.w3.org/2000/svg" xml:space="preserve" width="10.8372mm" height="10.8372mm" version="1.1" style="shape-rendering:geometricPrecision; text-rendering:geometricPrecision; image-rendering:optimizeQuality; fill-rule:evenodd; clip-rule:evenodd"
viewBox="0 0 1083.72 1083.72"
 xmlns:xlink="http://www.w3.org/1999/xlink"
 xmlns:xodm="http://www.corel.com/coreldraw/odm/2003">
 <defs>
  <style type="text/css">
   <![CDATA[
    .fil0 {fill:none}
    .fil1 {fill:#FEFEFE}
    .fil3 {fill:black}
    .fil4 {fill:white}
    .fil2 {fill:#2B2A29;fill-rule:nonzero}
   ]]>
  </style>
 </defs>
 <g id="Слой_x0020_1">
  <metadata id="CorelCorpID_0Corel-Layer"/>
  <rect class="fil0" x="474.12" y="474.04" width="135.47" height="135.47"/>
  <g id="_584924134944">
   <polygon class="fil1" points="482.59,482.52 601.13,482.52 601.13,601.05 482.59,601.05 "/>
   <g>
    <path class="fil2" d="M483.38 482.52l117.75 0 0 118.53 -118.54 0 0 -118.53 0.79 0zm116.18 1.56l-115.4 0 0 115.41 115.4 0 0 -115.41z"/>
    <g>
     <path class="fil3" d="M559.09 507.81c6.6,-1.31 11.58,2.69 12.35,9.67 1.63,14.73 -12.3,15.91 -17.13,11.44 -4.68,-4.34 -4.72,-12.55 -1.94,-16.77 1.7,-2.57 3.04,-3.61 6.72,-4.34zm-1.34 -10.14c-14.14,1.62 -20.02,11.52 -18.82,25.05 0.57,6.47 3.64,11.71 7.69,14.51 6.96,4.81 18.69,5.44 26.62,1.48 2.62,-1.3 2.43,-1.49 3.94,-2.77 7.23,-6.12 8.42,-19.85 3.6,-28.4 -4.55,-8.07 -13.32,-10.98 -23.03,-9.87z"/>
     <path class="fil3" d="M528.51 553.06c0.2,0.22 0.24,0.02 0.26,1 0.01,0.32 -0.01,0.7 -0.01,1.03l-0.01 30.97 11.59 -0.08 -0.01 -42.96 -31.66 -0.01c0.04,3.34 -0.31,6.82 -0.29,10.04 0.02,5.07 -0.36,14.46 -1.8,18.96 -0.98,3.05 -2.86,3.84 -6.53,3.83l0 10.28c5.61,-0.06 11.85,0.38 15.38,-4.45 1.04,-1.42 1.55,-2.52 2.11,-4.4 1.41,-4.69 1.84,-18.72 1.97,-24.2l9 -0.01z"/>
     <path class="fil3" d="M542.81 585.98l11.59 0.08 -0.01 -15.7c0.01,-1.14 -0.02,-0.27 0.25,-0.61l4.88 0.01c0.58,1.5 7.97,13.3 9.44,16.36l13.58 0c-0.4,-1.15 -1.11,-1.94 -1.67,-2.94l-11.38 -18.76c-0.97,-1.41 -0.01,-1.93 2.15,-5.33l9.89 -16.07 -13.35 0c-0.28,0.94 -5.92,10.66 -6.88,12.45 -0.68,1.26 -1.71,2.81 -2.2,4.08l-4.63 -0.06 0 -16.48 -11.62 0.04 -0.04 42.93z"/>
     <path class="fil3" d="M500.05 507.66l14.2 0.02 -0.01 32.96c3.35,-0.17 8,0 11.6,-0.05l0.03 -32.96 14.42 0 0.06 -10.17 -40.3 0 0 10.2z"/>
     <path class="fil4" d="M559.09 507.81c-3.68,0.73 -5.02,1.77 -6.72,4.34 -2.78,4.22 -2.74,12.43 1.94,16.77 4.83,4.47 18.76,3.29 17.13,-11.44 -0.77,-6.98 -5.75,-10.98 -12.35,-9.67z"/>
    </g>
   </g>
  </g>
 </g>
</svg>
